<mxfile host="app.diagrams.net" agent="Mozilla/5.0 (Windows NT 10.0; Win64; x64) AppleWebKit/537.36 (KHTML, like Gecko) Chrome/137.0.0.0 Safari/537.36" version="27.1.1">
  <diagram name="페이지-1" id="1Abq8BjGs-cZ-taARPbT">
    <mxGraphModel dx="1426" dy="743" grid="1" gridSize="10" guides="1" tooltips="1" connect="1" arrows="1" fold="1" page="1" pageScale="1" pageWidth="827" pageHeight="1169" math="0" shadow="0">
      <root>
        <mxCell id="0" />
        <mxCell id="1" parent="0" />
        <mxCell id="PgBV5VikIh93I9kiJAow-1" value="" style="ellipse;whiteSpace=wrap;html=1;labelBackgroundColor=none;" vertex="1" parent="1">
          <mxGeometry x="150" y="50" width="120" height="70" as="geometry" />
        </mxCell>
        <mxCell id="PgBV5VikIh93I9kiJAow-2" value="" style="ellipse;whiteSpace=wrap;html=1;labelBackgroundColor=none;" vertex="1" parent="1">
          <mxGeometry x="150" y="480" width="120" height="70" as="geometry" />
        </mxCell>
        <mxCell id="PgBV5VikIh93I9kiJAow-3" value="" style="ellipse;whiteSpace=wrap;html=1;labelBackgroundColor=none;" vertex="1" parent="1">
          <mxGeometry x="150" y="370" width="120" height="70" as="geometry" />
        </mxCell>
        <mxCell id="PgBV5VikIh93I9kiJAow-4" value="" style="ellipse;whiteSpace=wrap;html=1;labelBackgroundColor=none;" vertex="1" parent="1">
          <mxGeometry x="150" y="160" width="120" height="70" as="geometry" />
        </mxCell>
        <mxCell id="PgBV5VikIh93I9kiJAow-5" value="" style="ellipse;whiteSpace=wrap;html=1;labelBackgroundColor=none;" vertex="1" parent="1">
          <mxGeometry x="150" y="270" width="120" height="70" as="geometry" />
        </mxCell>
        <mxCell id="PgBV5VikIh93I9kiJAow-12" value="" style="ellipse;whiteSpace=wrap;html=1;labelBackgroundColor=none;" vertex="1" parent="1">
          <mxGeometry x="150" y="575" width="120" height="70" as="geometry" />
        </mxCell>
        <mxCell id="PgBV5VikIh93I9kiJAow-15" value="" style="endArrow=classic;html=1;rounded=0;entryX=0;entryY=0.5;entryDx=0;entryDy=0;labelBackgroundColor=none;fontColor=default;" edge="1" parent="1" target="PgBV5VikIh93I9kiJAow-1">
          <mxGeometry width="50" height="50" relative="1" as="geometry">
            <mxPoint x="70" y="220" as="sourcePoint" />
            <mxPoint x="160" y="120" as="targetPoint" />
          </mxGeometry>
        </mxCell>
        <mxCell id="PgBV5VikIh93I9kiJAow-16" value="Actor" style="shape=umlActor;verticalLabelPosition=bottom;verticalAlign=top;html=1;outlineConnect=0;labelBackgroundColor=none;" vertex="1" parent="1">
          <mxGeometry x="30" y="220" width="30" height="60" as="geometry" />
        </mxCell>
        <mxCell id="PgBV5VikIh93I9kiJAow-18" value="" style="endArrow=classic;html=1;rounded=0;entryX=0;entryY=0.5;entryDx=0;entryDy=0;labelBackgroundColor=none;fontColor=default;" edge="1" parent="1" target="PgBV5VikIh93I9kiJAow-4">
          <mxGeometry width="50" height="50" relative="1" as="geometry">
            <mxPoint x="70" y="250" as="sourcePoint" />
            <mxPoint x="130" y="210" as="targetPoint" />
          </mxGeometry>
        </mxCell>
        <mxCell id="PgBV5VikIh93I9kiJAow-19" value="" style="endArrow=classic;html=1;rounded=0;entryX=0;entryY=0.5;entryDx=0;entryDy=0;labelBackgroundColor=none;fontColor=default;" edge="1" parent="1" target="PgBV5VikIh93I9kiJAow-5">
          <mxGeometry width="50" height="50" relative="1" as="geometry">
            <mxPoint x="70" y="270" as="sourcePoint" />
            <mxPoint x="130" y="250" as="targetPoint" />
          </mxGeometry>
        </mxCell>
        <mxCell id="PgBV5VikIh93I9kiJAow-20" value="" style="endArrow=classic;html=1;rounded=0;entryX=0;entryY=0.5;entryDx=0;entryDy=0;labelBackgroundColor=none;fontColor=default;" edge="1" parent="1" target="PgBV5VikIh93I9kiJAow-3">
          <mxGeometry width="50" height="50" relative="1" as="geometry">
            <mxPoint x="70" y="300" as="sourcePoint" />
            <mxPoint x="120" y="300" as="targetPoint" />
          </mxGeometry>
        </mxCell>
        <mxCell id="PgBV5VikIh93I9kiJAow-22" value="" style="ellipse;whiteSpace=wrap;html=1;labelBackgroundColor=none;" vertex="1" parent="1">
          <mxGeometry x="150" y="670" width="120" height="70" as="geometry" />
        </mxCell>
        <mxCell id="PgBV5VikIh93I9kiJAow-23" value="Actor" style="shape=umlActor;verticalLabelPosition=bottom;verticalAlign=top;html=1;outlineConnect=0;labelBackgroundColor=none;" vertex="1" parent="1">
          <mxGeometry x="30" y="580" width="30" height="60" as="geometry" />
        </mxCell>
        <mxCell id="PgBV5VikIh93I9kiJAow-24" value="" style="endArrow=classic;html=1;rounded=0;labelBackgroundColor=none;fontColor=default;" edge="1" parent="1">
          <mxGeometry width="50" height="50" relative="1" as="geometry">
            <mxPoint x="70" y="580" as="sourcePoint" />
            <mxPoint x="150" y="520" as="targetPoint" />
          </mxGeometry>
        </mxCell>
        <mxCell id="PgBV5VikIh93I9kiJAow-25" value="" style="endArrow=classic;html=1;rounded=0;entryX=0;entryY=0.5;entryDx=0;entryDy=0;labelBackgroundColor=none;fontColor=default;" edge="1" parent="1" target="PgBV5VikIh93I9kiJAow-12">
          <mxGeometry width="50" height="50" relative="1" as="geometry">
            <mxPoint x="70" y="610" as="sourcePoint" />
            <mxPoint x="150" y="600" as="targetPoint" />
          </mxGeometry>
        </mxCell>
        <mxCell id="PgBV5VikIh93I9kiJAow-26" value="" style="endArrow=classic;html=1;rounded=0;entryX=0;entryY=0.5;entryDx=0;entryDy=0;labelBackgroundColor=none;fontColor=default;" edge="1" parent="1" target="PgBV5VikIh93I9kiJAow-22">
          <mxGeometry width="50" height="50" relative="1" as="geometry">
            <mxPoint x="70" y="650" as="sourcePoint" />
            <mxPoint x="130" y="670" as="targetPoint" />
          </mxGeometry>
        </mxCell>
        <mxCell id="PgBV5VikIh93I9kiJAow-27" value="SNS 기능" style="text;strokeColor=none;align=center;fillColor=none;html=1;verticalAlign=middle;whiteSpace=wrap;rounded=0;labelBackgroundColor=none;" vertex="1" parent="1">
          <mxGeometry x="180" y="70" width="60" height="30" as="geometry" />
        </mxCell>
        <mxCell id="PgBV5VikIh93I9kiJAow-28" value="알람 기능" style="text;strokeColor=none;align=center;fillColor=none;html=1;verticalAlign=middle;whiteSpace=wrap;rounded=0;labelBackgroundColor=none;" vertex="1" parent="1">
          <mxGeometry x="180" y="390" width="60" height="30" as="geometry" />
        </mxCell>
        <mxCell id="PgBV5VikIh93I9kiJAow-29" value="게시물&lt;div&gt;좋아요&amp;nbsp;&lt;span style=&quot;background-color: transparent; color: light-dark(rgb(0, 0, 0), rgb(255, 255, 255));&quot;&gt;/&amp;nbsp;&lt;/span&gt;&lt;span style=&quot;background-color: transparent; color: light-dark(rgb(0, 0, 0), rgb(255, 255, 255));&quot;&gt;댓글&lt;/span&gt;&lt;/div&gt;" style="text;strokeColor=none;align=center;fillColor=none;html=1;verticalAlign=middle;whiteSpace=wrap;rounded=0;labelBackgroundColor=none;" vertex="1" parent="1">
          <mxGeometry x="170" y="290" width="80" height="30" as="geometry" />
        </mxCell>
        <mxCell id="PgBV5VikIh93I9kiJAow-30" value="피드 작성 기능" style="text;strokeColor=none;align=center;fillColor=none;html=1;verticalAlign=middle;whiteSpace=wrap;rounded=0;labelBackgroundColor=none;" vertex="1" parent="1">
          <mxGeometry x="180" y="180" width="60" height="30" as="geometry" />
        </mxCell>
        <mxCell id="PgBV5VikIh93I9kiJAow-32" value="회원가입" style="text;html=1;align=center;verticalAlign=middle;resizable=0;points=[];autosize=1;labelBackgroundColor=none;" vertex="1" parent="1">
          <mxGeometry x="405" y="120" width="70" height="30" as="geometry" />
        </mxCell>
        <mxCell id="PgBV5VikIh93I9kiJAow-33" value="회원가입" style="ellipse;whiteSpace=wrap;html=1;labelBackgroundColor=none;" vertex="1" parent="1">
          <mxGeometry x="360" y="100" width="120" height="70" as="geometry" />
        </mxCell>
        <mxCell id="PgBV5VikIh93I9kiJAow-34" value="유저 정보 등록" style="ellipse;whiteSpace=wrap;html=1;" vertex="1" parent="1">
          <mxGeometry x="360" y="210" width="120" height="70" as="geometry" />
        </mxCell>
        <mxCell id="PgBV5VikIh93I9kiJAow-35" value="게시물 종합" style="ellipse;whiteSpace=wrap;html=1;" vertex="1" parent="1">
          <mxGeometry x="360" y="320" width="120" height="70" as="geometry" />
        </mxCell>
        <mxCell id="PgBV5VikIh93I9kiJAow-36" value="" style="ellipse;whiteSpace=wrap;html=1;" vertex="1" parent="1">
          <mxGeometry x="555" y="40" width="131.25" height="70" as="geometry" />
        </mxCell>
        <mxCell id="PgBV5VikIh93I9kiJAow-37" value="" style="ellipse;whiteSpace=wrap;html=1;" vertex="1" parent="1">
          <mxGeometry x="555" y="150" width="130" height="70" as="geometry" />
        </mxCell>
        <mxCell id="PgBV5VikIh93I9kiJAow-41" value="" style="ellipse;whiteSpace=wrap;html=1;" vertex="1" parent="1">
          <mxGeometry x="552.5" y="480" width="127.5" height="70" as="geometry" />
        </mxCell>
        <mxCell id="PgBV5VikIh93I9kiJAow-42" value="" style="ellipse;whiteSpace=wrap;html=1;" vertex="1" parent="1">
          <mxGeometry x="555" y="260" width="127.5" height="70" as="geometry" />
        </mxCell>
        <mxCell id="PgBV5VikIh93I9kiJAow-43" value="" style="ellipse;whiteSpace=wrap;html=1;" vertex="1" parent="1">
          <mxGeometry x="555" y="370" width="130" height="70" as="geometry" />
        </mxCell>
        <mxCell id="PgBV5VikIh93I9kiJAow-44" value="" style="ellipse;whiteSpace=wrap;html=1;" vertex="1" parent="1">
          <mxGeometry x="555" y="670" width="125" height="70" as="geometry" />
        </mxCell>
        <mxCell id="PgBV5VikIh93I9kiJAow-45" value="" style="ellipse;whiteSpace=wrap;html=1;" vertex="1" parent="1">
          <mxGeometry x="551.25" y="575" width="127.5" height="70" as="geometry" />
        </mxCell>
        <mxCell id="PgBV5VikIh93I9kiJAow-47" value="" style="endArrow=classic;html=1;rounded=0;exitX=1;exitY=0.5;exitDx=0;exitDy=0;" edge="1" parent="1" source="PgBV5VikIh93I9kiJAow-36">
          <mxGeometry width="50" height="50" relative="1" as="geometry">
            <mxPoint x="700" y="80" as="sourcePoint" />
            <mxPoint x="770" y="210" as="targetPoint" />
          </mxGeometry>
        </mxCell>
        <mxCell id="PgBV5VikIh93I9kiJAow-48" value="Actor" style="shape=umlActor;verticalLabelPosition=bottom;verticalAlign=top;html=1;outlineConnect=0;labelBackgroundColor=none;" vertex="1" parent="1">
          <mxGeometry x="770" y="220" width="30" height="60" as="geometry" />
        </mxCell>
        <mxCell id="PgBV5VikIh93I9kiJAow-49" value="Actor" style="shape=umlActor;verticalLabelPosition=bottom;verticalAlign=top;html=1;outlineConnect=0;labelBackgroundColor=none;" vertex="1" parent="1">
          <mxGeometry x="760" y="580" width="30" height="60" as="geometry" />
        </mxCell>
        <mxCell id="PgBV5VikIh93I9kiJAow-52" value="" style="endArrow=classic;html=1;rounded=0;exitX=1;exitY=0.5;exitDx=0;exitDy=0;" edge="1" parent="1">
          <mxGeometry width="50" height="50" relative="1" as="geometry">
            <mxPoint x="686.25" y="185" as="sourcePoint" />
            <mxPoint x="760" y="250" as="targetPoint" />
          </mxGeometry>
        </mxCell>
        <mxCell id="PgBV5VikIh93I9kiJAow-53" value="" style="endArrow=classic;html=1;rounded=0;exitX=1;exitY=0.5;exitDx=0;exitDy=0;" edge="1" parent="1" source="PgBV5VikIh93I9kiJAow-42">
          <mxGeometry width="50" height="50" relative="1" as="geometry">
            <mxPoint x="686" y="290" as="sourcePoint" />
            <mxPoint x="760" y="270" as="targetPoint" />
          </mxGeometry>
        </mxCell>
        <mxCell id="PgBV5VikIh93I9kiJAow-54" value="" style="endArrow=classic;html=1;rounded=0;exitX=1;exitY=0.5;exitDx=0;exitDy=0;" edge="1" parent="1" source="PgBV5VikIh93I9kiJAow-43">
          <mxGeometry width="50" height="50" relative="1" as="geometry">
            <mxPoint x="690" y="400" as="sourcePoint" />
            <mxPoint x="760" y="310" as="targetPoint" />
          </mxGeometry>
        </mxCell>
        <mxCell id="PgBV5VikIh93I9kiJAow-55" value="" style="endArrow=classic;html=1;rounded=0;exitX=1;exitY=0.5;exitDx=0;exitDy=0;" edge="1" parent="1" source="PgBV5VikIh93I9kiJAow-45">
          <mxGeometry width="50" height="50" relative="1" as="geometry">
            <mxPoint x="682.5" y="602.5" as="sourcePoint" />
            <mxPoint x="748" y="610" as="targetPoint" />
          </mxGeometry>
        </mxCell>
        <mxCell id="PgBV5VikIh93I9kiJAow-56" value="" style="endArrow=classic;html=1;rounded=0;exitX=1;exitY=0.5;exitDx=0;exitDy=0;" edge="1" parent="1" source="PgBV5VikIh93I9kiJAow-41">
          <mxGeometry width="50" height="50" relative="1" as="geometry">
            <mxPoint x="686.25" y="517" as="sourcePoint" />
            <mxPoint x="750" y="580" as="targetPoint" />
          </mxGeometry>
        </mxCell>
        <mxCell id="PgBV5VikIh93I9kiJAow-57" value="" style="endArrow=classic;html=1;rounded=0;exitX=1.024;exitY=0.4;exitDx=0;exitDy=0;exitPerimeter=0;" edge="1" parent="1" source="PgBV5VikIh93I9kiJAow-44">
          <mxGeometry width="50" height="50" relative="1" as="geometry">
            <mxPoint x="730" y="690" as="sourcePoint" />
            <mxPoint x="750" y="640" as="targetPoint" />
          </mxGeometry>
        </mxCell>
      </root>
    </mxGraphModel>
  </diagram>
</mxfile>
